<?xml version="1.0" encoding="UTF-8"?>
<svg id="Layer_2" data-name="Layer 2" xmlns="http://www.w3.org/2000/svg" viewBox="0 0 214.47 214.54">
  <defs>
    <style>
      .cls-1 {
        fill: #ffce06;
      }
    </style>
  </defs>
  <g id="Capa_1" data-name="Capa 1">
    <path class="cls-1" d="M107.43,214.47c-1.49,0-2.98.04-4.47-.01-1.54-.05-3.07-.19-4.61-.3-1-.07-2.01-.16-3.01-.27-1.25-.14-2.49-.28-3.73-.48-1.63-.26-3.26-.54-4.88-.87-2.14-.44-4.28-.88-6.4-1.43-2.02-.52-4.03-1.13-6-1.8-2.23-.75-4.43-1.6-6.63-2.44-1.67-.64-3.33-1.3-4.96-2.03-1.68-.76-3.34-1.58-4.97-2.45-1.93-1.03-3.85-2.09-5.73-3.21-2.97-1.76-5.8-3.73-8.59-5.77-2.8-2.05-5.45-4.28-8.04-6.58-.73-.64-1.42-1.33-2.13-2-.59-.56-1.2-1.12-1.77-1.71-2.87-2.93-5.6-5.97-8.16-9.17-3.31-4.15-6.28-8.53-8.95-13.11-1.6-2.75-3.04-5.59-4.37-8.48-.82-1.78-1.64-3.57-2.35-5.4-.91-2.34-1.73-4.72-2.56-7.1-1.21-3.46-2.06-7.02-2.81-10.6-.51-2.46-.94-4.93-1.29-7.42-.31-2.2-.5-4.42-.7-6.64-.12-1.27-.19-2.54-.23-3.82-.06-2-.12-4-.11-6,.01-1.65.13-3.31.22-4.96.19-3.75.66-7.47,1.29-11.16.53-3.13,1.18-6.24,1.98-9.32,1.47-5.7,3.48-11.21,5.87-16.57,1.1-2.47,2.36-4.87,3.61-7.27,1.56-3.02,3.38-5.88,5.29-8.69,2.05-3.03,4.21-5.99,6.58-8.77,1.61-1.88,3.29-3.7,4.96-5.53.76-.83,1.54-1.64,2.35-2.42,1.31-1.25,2.62-2.5,3.99-3.69,1.87-1.62,3.76-3.22,5.7-4.75,3.69-2.9,7.59-5.5,11.64-7.86,1.5-.87,3.03-1.69,4.57-2.48,1.85-.94,3.71-1.87,5.59-2.73,1.5-.69,3.04-1.31,4.58-1.89,2.13-.81,4.28-1.58,6.44-2.31,3.33-1.12,6.74-1.98,10.18-2.7,2.27-.48,4.55-.88,6.83-1.26,1.39-.23,2.79-.36,4.19-.5,1.44-.14,2.88-.25,4.32-.34.91-.06,1.82-.1,2.74-.11,2.65-.04,5.3-.11,7.95-.08,1.71.02,3.41.18,5.12.3.91.06,1.82.13,2.73.24,1.75.21,3.51.41,5.25.69,1.86.3,3.7.65,5.54,1.02,4.21.86,8.35,1.99,12.42,3.4,4.69,1.63,9.28,3.51,13.7,5.79,3.12,1.61,6.16,3.33,9.12,5.22,3.35,2.13,6.56,4.46,9.65,6.94,1.83,1.46,3.58,3.03,5.32,4.59,1.37,1.24,2.72,2.51,4.01,3.84,1.46,1.5,2.87,3.06,4.24,4.64,1.46,1.69,2.88,3.41,4.25,5.16,1.97,2.52,3.8,5.15,5.52,7.85,1.41,2.2,2.76,4.43,3.94,6.76.9,1.79,1.85,3.55,2.7,5.36.88,1.88,1.67,3.79,2.46,5.71,1.18,2.87,2.23,5.79,3.11,8.76.87,2.92,1.6,5.88,2.25,8.85.69,3.2,1.22,6.43,1.55,9.69.2,1.93.33,3.87.5,5.8.24,2.8.24,5.6.22,8.4-.01,1.45-.07,2.9-.16,4.34-.1,1.56-.24,3.11-.41,4.66-.22,2.04-.44,4.09-.73,6.12-.44,3.05-1.11,6.06-1.85,9.06-.93,3.81-2.07,7.56-3.46,11.23-1.39,3.65-2.86,7.26-4.64,10.75-2.65,5.21-5.66,10.19-9.11,14.91-1.85,2.54-3.82,4.99-5.89,7.36-1.82,2.09-3.66,4.14-5.64,6.07-2.29,2.24-4.67,4.38-7.14,6.42-3.01,2.49-6.12,4.86-9.4,6.99-3.15,2.05-6.37,3.97-9.71,5.69-3,1.54-6.04,2.97-9.17,4.22-3.07,1.23-6.19,2.33-9.36,3.28-3.53,1.07-7.12,1.9-10.75,2.6-2.07.4-4.16.68-6.25.97-1.64.22-3.28.38-4.93.54-.78.08-1.56.12-2.34.15-2.04.06-4.08.11-6.12.16,0-.02,0-.05,0-.07ZM199.44,107.21h.09c-.05-1.39-.08-2.78-.16-4.17-.1-1.67-.19-3.35-.37-5.01-.23-2.04-.49-4.08-.84-6.1-.56-3.17-1.28-6.3-2.17-9.4-.98-3.41-2.18-6.74-3.52-10.02-1.07-2.63-2.32-5.18-3.65-7.69-1.51-2.87-3.17-5.65-4.96-8.35-1.58-2.38-3.29-4.67-5.07-6.9-1.7-2.13-3.49-4.19-5.38-6.14-2.12-2.19-4.31-4.32-6.63-6.31-2.45-2.1-4.96-4.12-7.63-5.91-2.24-1.51-4.55-2.92-6.86-4.33-2.6-1.59-5.35-2.92-8.13-4.16-2.03-.9-4.12-1.67-6.2-2.45-2.21-.83-4.44-1.59-6.74-2.12-1.91-.44-3.84-.54-5.76-.05-3.12.81-5.52,2.61-7.23,5.31-.82,1.3-1.52,2.68-2.22,4.05-1.77,3.46-3.53,6.93-5.26,10.41-.95,1.91-1.9,3.82-2.76,5.77-.88,2-1.22,4.12-.89,6.31.52,3.55,2.28,6.3,5.32,8.2,2.49,1.55,5.21,2.05,8.11,1.61,1.16-.18,2.32-.4,3.48-.58,2.12-.32,4.08.12,5.9,1.24,1.55.96,2.7,2.29,3.56,3.87,1.26,2.31,2.46,4.65,3.67,6.98,1.28,2.49,2.54,4.99,3.8,7.48,2.9,5.71,5.79,11.43,8.69,17.14,1.59,3.15,3.18,6.29,4.78,9.44,1.47,2.91,2.94,5.82,4.42,8.72,1.2,2.36,2.4,4.72,3.6,7.09,2.28,4.51,4.56,9.01,6.84,13.52.99,1.96,1.96,3.92,2.97,5.87.88,1.68,2.05,3.13,3.56,4.27,2.45,1.86,5.22,2.65,8.3,2.3,1.69-.19,3.25-.76,4.69-1.65,2.2-1.36,3.75-3.29,4.71-5.66.73-1.8,1.35-3.64,1.96-5.49.97-2.95,1.67-5.97,2.27-9.02.51-2.61.94-5.24,1.19-7.89.21-2.25.39-4.51.52-6.77.07-1.14.01-2.29.01-3.43ZM14.93,107.11c.05,1.24.09,2.51.15,3.79.07,1.44.11,2.89.26,4.33.23,2.27.51,4.54.83,6.8.34,2.39.81,4.77,1.42,7.11.48,1.82,1,3.63,1.53,5.44.56,1.92,1.2,3.81,2.05,5.63,1.32,2.83,3.4,4.89,6.29,6.1,1.94.82,3.97,1,6.05.69,1.78-.26,3.39-.94,4.87-1.98,1.71-1.2,2.96-2.8,3.92-4.62,1.16-2.23,2.28-4.49,3.4-6.73,2.72-5.41,5.44-10.83,8.15-16.24,1.26-2.5,2.5-5.01,3.76-7.51.86-1.7,1.74-3.39,2.6-5.09,1.75-3.47,3.49-6.95,5.24-10.43,1.67-3.32,3.33-6.64,5-9.97.85-1.69,1.7-3.37,2.54-5.06,2.33-4.65,4.66-9.3,7-13.95,2.32-4.61,4.65-9.22,6.97-13.83,2.59-5.16,5.17-10.33,7.75-15.5.54-1.09,1.02-2.22,1.31-3.41.82-3.34.35-6.46-1.57-9.34-1.33-2-3.15-3.39-5.35-4.32-1.09-.46-2.24-.74-3.42-.81-1.61-.09-3.19.11-4.74.54-2.67.75-5.28,1.69-7.86,2.71-4.7,1.85-9.18,4.16-13.51,6.77-3.35,2.02-6.54,4.26-9.6,6.7-2.38,1.91-4.69,3.9-6.86,6.04-1.63,1.6-3.22,3.26-4.76,4.94-2.15,2.35-4.1,4.87-5.96,7.44-2.17,3-4.15,6.12-5.94,9.36-1.7,3.07-3.26,6.21-4.57,9.46-1.23,3.05-2.3,6.16-3.24,9.32-1,3.36-1.78,6.77-2.36,10.23-.55,3.29-.91,6.59-1.12,9.92-.12,1.81-.14,3.62-.21,5.47ZM107.27,199.55s0,0,0,0c1.16,0,2.33.04,3.49-.01,1.42-.06,2.84-.2,4.26-.31.95-.08,1.9-.14,2.84-.26,1.75-.24,3.5-.47,5.24-.79,2.15-.4,4.29-.81,6.41-1.33,3.58-.88,7.09-1.99,10.54-3.31,2.38-.92,4.74-1.89,7.02-3.02,2.23-1.11,4.44-2.28,6.6-3.51,3.48-1.99,6.77-4.26,9.93-6.72,2.09-1.63,4.14-3.31,6.06-5.14,1.27-1.21,2.55-2.42,3.68-3.75,2.32-2.72,3.34-5.89,2.74-9.45-.71-4.22-3.13-7.15-7.02-8.87-1.72-.76-3.56-.98-5.41-.98-12.54,0-25.08.05-37.62.07-8.76.01-17.53,0-26.29,0-1.3,0-2.59.09-3.86.35-2.06.41-3.88,1.3-5.47,2.69-1.29,1.14-2.3,2.5-3.09,4.01-1.07,2.04-2.08,4.11-3.1,6.18-1.9,3.86-3.8,7.73-5.68,11.6-.54,1.11-1.07,2.23-1.55,3.38-.74,1.79-1.17,3.64-1.08,5.6.13,2.77,1.15,5.14,2.98,7.18,1.57,1.75,3.55,2.86,5.77,3.55,2.66.83,5.39,1.31,8.13,1.72,1.93.29,3.88.51,5.82.71,1.79.18,3.59.32,5.39.43,1.08.06,2.18.01,3.26.01ZM126.18,137.45c2.54,0,5.08.03,7.62-.01,1.08-.02,2.16-.13,3.23-.32,2.24-.39,4.16-1.44,5.79-3.02,1.03-1,1.85-2.17,2.47-3.48,1.07-2.29,1.3-4.67.83-7.14-.31-1.64-.99-3.16-1.73-4.64-2.12-4.23-4.25-8.44-6.38-12.67-.8-1.58-1.57-3.18-2.53-4.67-1.15-1.78-2.6-3.25-4.48-4.22-2-1.03-4.11-1.52-6.39-1.3-1.03.1-2.03.3-3,.66-2.86,1.07-4.96,3.01-6.39,5.68-.98,1.83-1.89,3.7-2.81,5.56-1.84,3.73-3.66,7.46-5.48,11.19-.6,1.23-1.12,2.5-1.45,3.84-.44,1.74-.49,3.5-.11,5.25.5,2.3,1.6,4.25,3.3,5.89,1.24,1.2,2.67,2.06,4.29,2.65,1.69.61,3.47.69,5.23.73,2.67.06,5.34.02,8.02.02ZM55.74,178.47c7.43-.07,13.13-6.12,13.13-13.09,0-7.09-5.63-13.13-13.08-13.19-7-.06-13.14,5.64-13.14,13.12,0,7.48,6.1,13.16,13.09,13.17Z"/>
  </g>
</svg>