<?xml version="1.0" encoding="UTF-8"?>
<svg id="Layer_2" data-name="Layer 2" xmlns="http://www.w3.org/2000/svg" viewBox="0 0 271.11 271.21">
  <defs>
    <style>
      .cls-1 {
        fill: #1d1d1b;
      }
    </style>
  </defs>
  <g id="Capa_1" data-name="Capa 1">
    <path class="cls-1" d="M135.8,271.12c-1.88,0-3.77.05-5.65-.01-1.94-.07-3.88-.24-5.82-.38-1.27-.09-2.54-.2-3.8-.34-1.58-.18-3.15-.36-4.72-.6-2.06-.33-4.12-.68-6.17-1.1-2.7-.56-5.41-1.11-8.08-1.81-2.55-.66-5.09-1.43-7.59-2.27-2.82-.95-5.6-2.02-8.38-3.09-2.11-.81-4.21-1.64-6.27-2.57-2.13-.96-4.22-2-6.28-3.09-2.44-1.3-4.86-2.64-7.24-4.05-3.76-2.22-7.33-4.72-10.85-7.3-3.54-2.59-6.89-5.41-10.17-8.32-.92-.81-1.8-1.68-2.69-2.53-.75-.71-1.51-1.42-2.24-2.16-3.62-3.7-7.08-7.54-10.31-11.6-4.18-5.25-7.94-10.78-11.31-16.57-2.02-3.47-3.84-7.06-5.52-10.71-1.04-2.25-2.07-4.51-2.97-6.82-1.15-2.96-2.19-5.97-3.24-8.97-1.52-4.37-2.61-8.87-3.55-13.39-.65-3.1-1.18-6.24-1.63-9.38-.4-2.78-.63-5.59-.89-8.39-.15-1.6-.24-3.22-.29-4.83-.08-2.53-.16-5.06-.14-7.59.02-2.09.17-4.18.27-6.27.24-4.74.84-9.44,1.63-14.11.67-3.96,1.5-7.89,2.5-11.78,1.86-7.2,4.4-14.17,7.42-20.95,1.39-3.12,2.99-6.15,4.56-9.19,1.97-3.81,4.28-7.43,6.69-10.98,2.6-3.83,5.32-7.57,8.32-11.09,2.03-2.38,4.16-4.68,6.26-7,.96-1.05,1.95-2.07,2.98-3.06,1.65-1.58,3.31-3.16,5.04-4.66,2.36-2.05,4.75-4.07,7.21-6.01,4.66-3.67,9.59-6.95,14.71-9.94,1.89-1.1,3.82-2.14,5.77-3.13,2.34-1.19,4.69-2.36,7.07-3.45,1.9-.87,3.84-1.65,5.8-2.39,2.7-1.02,5.41-2,8.14-2.92,4.21-1.42,8.53-2.5,12.87-3.41,2.86-.6,5.75-1.11,8.64-1.59,1.75-.29,3.52-.45,5.29-.63,1.82-.18,3.64-.31,5.46-.44,1.15-.08,2.31-.13,3.46-.14,3.35-.05,6.7-.13,10.05-.1,2.16.02,4.32.23,6.47.38,1.15.08,2.3.16,3.45.3,2.22.27,4.43.52,6.64.87,2.35.37,4.68.82,7.01,1.29,5.33,1.08,10.56,2.51,15.7,4.3,5.93,2.06,11.73,4.44,17.32,7.32,3.94,2.03,7.79,4.21,11.53,6.6,4.23,2.69,8.29,5.63,12.2,8.77,2.31,1.85,4.52,3.82,6.72,5.8,1.74,1.56,3.44,3.17,5.07,4.85,1.84,1.9,3.63,3.87,5.36,5.87,1.84,2.13,3.63,4.31,5.37,6.52,2.49,3.19,4.81,6.51,6.98,9.92,1.78,2.78,3.49,5.6,4.98,8.55,1.14,2.26,2.34,4.49,3.41,6.78,1.11,2.37,2.12,4.8,3.11,7.22,1.49,3.63,2.82,7.32,3.93,11.08,1.1,3.69,2.02,7.43,2.84,11.19.88,4.05,1.54,8.13,1.96,12.25.25,2.44.41,4.89.63,7.33.31,3.53.31,7.08.28,10.62-.02,1.83-.09,3.66-.21,5.49-.13,1.97-.3,3.93-.51,5.89-.28,2.58-.55,5.17-.92,7.74-.55,3.86-1.41,7.66-2.33,11.45-1.18,4.82-2.61,9.56-4.37,14.2-1.75,4.61-3.61,9.18-5.86,13.59-3.36,6.58-7.16,12.89-11.51,18.85-2.34,3.21-4.83,6.3-7.45,9.3-2.3,2.64-4.63,5.23-7.13,7.68-2.89,2.83-5.91,5.53-9.03,8.11-3.81,3.15-7.74,6.14-11.88,8.83-3.98,2.59-8.05,5.02-12.27,7.19-3.79,1.95-7.64,3.76-11.6,5.34-3.88,1.55-7.82,2.94-11.83,4.15-4.47,1.35-9.01,2.4-13.58,3.29-2.62.51-5.26.86-7.9,1.22-2.07.28-4.15.48-6.23.69-.98.1-1.97.15-2.95.18-2.58.08-5.15.14-7.73.21,0-.03,0-.06,0-.09ZM252.12,135.52h.11c-.07-1.76-.11-3.52-.21-5.27-.12-2.11-.24-4.23-.47-6.33-.29-2.58-.62-5.16-1.07-7.71-.71-4.01-1.62-7.97-2.74-11.88-1.23-4.31-2.76-8.52-4.45-12.67-1.36-3.32-2.94-6.54-4.61-9.72-1.91-3.63-4.01-7.14-6.27-10.55-1.99-3.01-4.16-5.9-6.41-8.73-2.15-2.69-4.41-5.29-6.81-7.76-2.69-2.77-5.45-5.46-8.38-7.97-3.09-2.65-6.27-5.2-9.65-7.47-2.84-1.91-5.76-3.69-8.68-5.47-3.29-2.01-6.76-3.7-10.27-5.26-2.56-1.14-5.21-2.12-7.84-3.1-2.79-1.05-5.61-2.01-8.51-2.68-2.42-.56-4.85-.69-7.29-.06-3.94,1.02-6.98,3.3-9.14,6.72-1.04,1.64-1.92,3.39-2.81,5.13-2.24,4.37-4.46,8.76-6.65,13.16-1.2,2.41-2.41,4.83-3.49,7.3-1.11,2.53-1.54,5.21-1.13,7.98.66,4.48,2.88,7.97,6.72,10.37,3.15,1.96,6.59,2.6,10.25,2.04,1.47-.22,2.93-.5,4.4-.73,2.68-.41,5.16.15,7.46,1.57,1.96,1.21,3.42,2.9,4.5,4.89,1.59,2.92,3.11,5.87,4.64,8.83,1.62,3.14,3.21,6.3,4.81,9.46,3.66,7.22,7.32,14.44,10.98,21.67,2.01,3.98,4.03,7.95,6.04,11.93,1.86,3.68,3.72,7.35,5.58,11.03,1.51,2.99,3.04,5.97,4.55,8.96,2.88,5.7,5.76,11.4,8.65,17.09,1.25,2.47,2.48,4.96,3.76,7.42,1.11,2.12,2.6,3.95,4.5,5.4,3.1,2.36,6.6,3.35,10.5,2.9,2.14-.24,4.11-.96,5.93-2.08,2.78-1.72,4.75-4.15,5.96-7.15.92-2.27,1.71-4.61,2.48-6.94,1.23-3.73,2.12-7.55,2.87-11.4.65-3.3,1.19-6.63,1.5-9.98.26-2.85.49-5.7.66-8.56.09-1.44.02-2.89.02-4.34ZM18.88,135.4c.06,1.57.12,3.18.2,4.79.09,1.83.14,3.66.33,5.48.29,2.87.64,5.73,1.04,8.59.43,3.03,1.02,6.02,1.8,8.98.6,2.3,1.27,4.59,1.94,6.87.71,2.43,1.52,4.82,2.59,7.11,1.67,3.58,4.3,6.18,7.95,7.71,2.46,1.03,5.02,1.26,7.65.87,2.25-.33,4.29-1.19,6.15-2.5,2.16-1.52,3.74-3.53,4.95-5.85,1.47-2.82,2.88-5.67,4.3-8.51,3.44-6.84,6.87-13.69,10.31-20.53,1.59-3.16,3.16-6.33,4.75-9.49,1.08-2.15,2.2-4.29,3.28-6.44,2.21-4.39,4.41-8.79,6.62-13.18,2.11-4.2,4.21-8.4,6.32-12.6,1.07-2.13,2.14-4.26,3.21-6.39,2.95-5.88,5.89-11.76,8.85-17.63,2.93-5.83,5.88-11.65,8.81-17.48,3.28-6.53,6.54-13.06,9.8-19.59.69-1.38,1.29-2.8,1.66-4.31,1.04-4.22.44-8.17-1.98-11.8-1.68-2.52-3.98-4.29-6.76-5.46-1.38-.58-2.83-.93-4.33-1.02-2.04-.12-4.03.14-6,.69-3.38.95-6.68,2.14-9.94,3.42-5.94,2.34-11.61,5.26-17.07,8.56-4.23,2.56-8.27,5.38-12.13,8.47-3.01,2.41-5.92,4.94-8.67,7.64-2.06,2.03-4.07,4.12-6.02,6.25-2.72,2.97-5.18,6.15-7.54,9.41-2.75,3.79-5.25,7.73-7.51,11.83-2.14,3.88-4.12,7.84-5.77,11.96-1.55,3.86-2.91,7.79-4.09,11.78-1.26,4.25-2.25,8.56-2.98,12.93-.7,4.15-1.15,8.34-1.42,12.54-.15,2.28-.18,4.57-.26,6.91ZM135.6,252.26s0,0,0,0c1.47,0,2.95.05,4.41-.01,1.8-.08,3.59-.25,5.39-.39,1.2-.1,2.4-.17,3.59-.33,2.21-.3,4.43-.59,6.62-1,2.71-.5,5.43-1.03,8.11-1.69,4.53-1.11,8.97-2.51,13.32-4.19,3.01-1.16,5.99-2.38,8.87-3.82,2.82-1.41,5.61-2.88,8.35-4.44,4.4-2.52,8.56-5.39,12.56-8.5,2.64-2.06,5.23-4.18,7.66-6.49,1.6-1.53,3.22-3.06,4.66-4.74,2.93-3.44,4.22-7.45,3.46-11.95-.9-5.33-3.96-9.03-8.88-11.22-2.17-.96-4.5-1.24-6.83-1.23-15.85,0-31.71.07-47.56.09-11.08.02-22.16,0-33.23,0-1.64,0-3.27.12-4.88.44-2.61.52-4.91,1.64-6.91,3.4-1.63,1.44-2.91,3.16-3.91,5.06-1.35,2.58-2.63,5.2-3.92,7.82-2.4,4.88-4.8,9.77-7.18,14.67-.68,1.41-1.35,2.83-1.95,4.27-.94,2.26-1.48,4.6-1.37,7.08.16,3.5,1.46,6.5,3.77,9.08,1.98,2.21,4.49,3.61,7.29,4.49,3.36,1.05,6.81,1.66,10.28,2.18,2.44.37,4.9.64,7.36.9,2.27.23,4.54.41,6.82.54,1.37.08,2.75.01,4.13.01ZM159.51,173.76c3.21,0,6.42.04,9.63-.02,1.36-.02,2.74-.17,4.08-.4,2.83-.5,5.26-1.83,7.31-3.82,1.3-1.27,2.34-2.74,3.12-4.39,1.36-2.9,1.64-5.91,1.05-9.02-.39-2.08-1.25-3.99-2.18-5.87-2.68-5.34-5.38-10.67-8.06-16.01-1.01-2-1.98-4.02-3.2-5.9-1.45-2.25-3.28-4.1-5.67-5.34-2.52-1.3-5.2-1.92-8.07-1.65-1.31.12-2.57.38-3.79.83-3.61,1.35-6.27,3.81-8.08,7.18-1.24,2.31-2.4,4.67-3.56,7.03-2.32,4.71-4.63,9.43-6.93,14.15-.76,1.56-1.41,3.16-1.84,4.85-.56,2.2-.61,4.42-.13,6.64.63,2.91,2.02,5.38,4.17,7.45,1.57,1.52,3.38,2.61,5.42,3.35,2.14.78,4.38.87,6.61.93,3.38.08,6.76.02,10.13.02ZM70.46,225.61c9.39-.08,16.6-7.73,16.6-16.55,0-8.96-7.12-16.6-16.54-16.68-8.85-.07-16.61,7.13-16.61,16.58,0,9.46,7.71,16.64,16.55,16.65Z"/>
  </g>
</svg>